<?xml version="1.0" encoding="utf-8"?>
<!-- Generator: Adobe Illustrator 15.0.2, SVG Export Plug-In . SVG Version: 6.00 Build 0)  -->
<!DOCTYPE svg PUBLIC "-//W3C//DTD SVG 1.1//EN" "http://www.w3.org/Graphics/SVG/1.1/DTD/svg11.dtd">
<svg version="1.1" id="Layer_1" xmlns="http://www.w3.org/2000/svg" xmlns:xlink="http://www.w3.org/1999/xlink" x="0px" y="0px"
	 width="512px" height="501.4px" viewBox="0 0 512 501.4" enable-background="new 0 0 512 501.4" xml:space="preserve">
<path d="M68.033,0.142c82.879-2.957,156.812,41.064,187.969,62.74c31.157-21.676,105.095-65.697,187.969-62.74
	c31.322,11.748,35.244,19.583,35.244,19.583s-86.158,27.409-148.802,105.732C412.649,231.189,526.207,376.074,510.537,501.4
	C428.301,356.501,333.9,247.257,256.002,201.196C178.104,247.257,83.699,356.501,1.462,501.4
	c-15.666-125.326,97.897-270.211,180.133-375.943C118.943,47.134,32.789,19.725,32.789,19.725S36.707,11.89,68.033,0.142z"/>
</svg>
